PathFileType	4	(X/Y/Z)	./resultDataOpenSim/trcMotMarkerGrf/sub06/qtm-03-02.trc
DataRate	CameraRate	NumFrames	NumMarkers	Units	OrigDataRate	OrigDataStartFrame	OrigNumFrames
250.000000	250.000000	13	24	m	250.000000	377	502
Frame#	Time	L.Toe.Tip			R.Toe.Tip			L.Ankle.Lat			R.Ankle.Lat			L.Ankle.Med			R.Ankle.Med			L.Heel			R.Heel			L.Knee.Lat			R.Knee.Lat			L.Knee.Med			R.Knee.Med			L.Thigh.Upper			R.Thigh.Upper			L.ASIS			R.ASIS			V.Sacral			L.Acromium			R.Acromium			C7			L.Elbow			R.Elbow			L.Wrist.Lat			R.Wrist.Lat
		X1	Y1	Z1	X2	Y2	Z2	X3	Y3	Z3	X4	Y4	Z4	X5	Y5	Z5	X6	Y6	Z6	X7	Y7	Z7	X8	Y8	Z8	X9	Y9	Z9	X10	Y10	Z10	X11	Y11	Z11	X12	Y12	Z12	X13	Y13	Z13	X14	Y14	Z14	X15	Y15	Z15	X16	Y16	Z16	X17	Y17	Z17	X18	Y18	Z18	X19	Y19	Z19	X20	Y20	Z20	X21	Y21	Z21	X22	Y22	Z22	X23	Y23	Z23	X24	Y24	Z24

377	1.504	1.4090319	0.08584723	-0.041952275	0.93940496	0.035403939	0.11748295	1.2851606	0.10219667	-0.062712507	0.8069186	0.078957797	0.13218792	1.2863506	0.11823519	0.02095558	0.8387752	0.10083344	0.04856909	1.2168909	0.063721947	-0.017289415	0.755967	0.067901336	0.067932476	1.2979673	0.48111907	-0.068899287	0.95873942	0.44239885	0.1709939	1.2877752	0.47099667	0.050600738	0.94461383	0.44006698	0.039473222	1.0957673	0.81938181	-0.11376873	1.0282137	0.80242189	0.22981686	1.1540456	0.8614912	-0.056166653	1.1356255	0.85477239	0.19262309	0.95886074	0.92973401	0.057395644	1.0747011	1.3414342	-0.11412598	1.0992282	1.3286385	0.24554953	1.01145	1.3746427	0.072449726	0.97094807	1.0452945	-0.15554693	1.1358968	1.0136096	0.33987154	1.0381714	0.81786308	-0.20690878	1.3806566	1.0135885	0.27886987
378	1.508	1.4265062	0.088477392	-0.041068168	0.93946153	0.035389017	0.11749009	1.302143	0.10056837	-0.06199038	0.8073985	0.079621939	0.13223217	1.3030353	0.1164294	0.021779422	0.83934732	0.10116264	0.048627424	1.2351437	0.059794739	-0.016600019	0.75622436	0.068875367	0.068084019	1.3028522	0.4789951	-0.068532256	0.96204106	0.44187665	0.17085966	1.2936512	0.46920307	0.051037325	0.94781342	0.43961162	0.039295158	1.1023105	0.81796674	-0.11401427	1.0337177	0.80123088	0.22941415	1.1607334	0.86004634	-0.056355528	1.1415291	0.85329936	0.19248013	0.96522205	0.92848056	0.056543151	1.0804999	1.3400146	-0.1142571	1.1051071	1.3273769	0.24544546	1.0172538	1.3733011	0.072344955	0.97578182	1.0444084	-0.15535523	1.1430676	1.0125239	0.33979924	1.0411794	0.8166783	-0.20760105	1.3876068	1.0143348	0.27797929
379	1.512	1.4436422	0.091306896	-0.040198786	0.93952548	0.035367136	0.11750866	1.3189328	0.099306651	-0.061337765	0.80791185	0.080298656	0.13229309	1.319574	0.11484824	0.022559929	0.83983995	0.10157775	0.048671483	1.2532335	0.056329825	-0.01604817	0.75649508	0.069899717	0.068265333	1.3077443	0.47676879	-0.068113138	0.96539968	0.44133818	0.17074631	1.2993112	0.46736817	0.051568691	0.95109864	0.43913664	0.039131661	1.1088667	0.81648823	-0.11424256	1.0392935	0.80001402	0.22900718	1.1674335	0.85858467	-0.056549882	1.1474534	0.85177555	0.19233758	0.97160889	0.92719405	0.055724848	1.0863317	1.3385813	-0.11441672	1.1110037	1.3260899	0.24532509	1.0230813	1.3719249	0.072217407	0.98068334	1.0434952	-0.15519342	1.1501953	1.0114049	0.33970543	1.0443019	0.81548651	-0.20829496	1.3945215	1.0149306	0.27716195
380	1.516	1.4604006	0.094311464	-0.039364667	0.93959578	0.035337899	0.11752264	1.3354673	0.098401684	-0.060719533	0.80844016	0.080993102	0.13238486	1.3359052	0.11365936	0.023259952	0.84031833	0.10204707	0.04872439	1.2711108	0.05332552	-0.015637813	0.75678794	0.070975463	0.068470894	1.3126651	0.47445723	-0.06762353	0.9688425	0.44078857	0.17064001	1.3049222	0.46550959	0.052201815	0.95446455	0.43863944	0.038987108	1.1154405	0.81494359	-0.11446605	1.0449328	0.79877373	0.22858062	1.1741093	0.857104	-0.056720489	1.1534104	0.85021239	0.19218053	0.97801901	0.92587873	0.05496166	1.092192	1.3371338	-0.11460035	1.116921	1.3247786	0.24519408	1.0289382	1.3705167	0.072067597	0.98565264	1.042556	-0.15505518	1.1572761	1.0102553	0.33959032	1.0475377	0.81428708	-0.2089902	1.4014029	1.0153738	0.27640143
381	1.52	1.4767556	0.097483482	-0.038598503	0.93966516	0.035322177	0.11752497	1.351683	0.097832066	-0.060097283	0.80897906	0.081716759	0.13251025	1.3520325	0.11298386	0.023881347	0.84084887	0.10252897	0.048810414	1.2887291	0.050772437	-0.015371961	0.75711228	0.072099983	0.068693611	1.3176477	0.47208591	-0.067040795	0.97241637	0.44024073	0.17052717	1.3105211	0.46363839	0.052925435	0.95790274	0.43812421	0.038860838	1.1220328	0.81333314	-0.11469308	1.0506081	0.79751544	0.22809998	1.1807731	0.85560718	-0.056862296	1.1594459	0.84860651	0.1920067	0.98444562	0.9245354	0.054261207	1.0980823	1.3356731	-0.11480611	1.1228625	1.3234475	0.24505244	1.0348324	1.369081	0.071892003	0.99068635	1.0415966	-0.15494794	1.1643103	1.0090804	0.33946085	1.0508983	0.81308243	-0.20969151	1.408247	1.0156708	0.27567261
382	1.524	1.4926853	0.1008346	-0.037951468	0.93971572	0.03537194	0.11753231	1.3675263	0.097559008	-0.059468944	0.80952914	0.082483414	0.132668	1.3677867	0.11279938	0.024417287	0.84141929	0.10302882	0.048918753	1.3060271	0.048625008	-0.015176527	0.75747097	0.073274718	0.068928018	1.3227248	0.46968682	-0.066349785	0.97616844	0.43970963	0.17039726	1.316097	0.46176344	0.053719564	0.96140978	0.43759824	0.038749441	1.1286413	0.81165822	-0.11492202	1.0562805	0.79624018	0.22753696	1.187454	0.85409839	-0.056985538	1.1656441	0.84693042	0.1918245	0.99088582	0.92315788	0.053627409	1.104008	1.3342014	-0.11503581	1.1288285	1.3221046	0.24489162	1.0407674	1.3676196	0.071685076	0.99578274	1.0406248	-0.15488365	1.1713094	1.0078927	0.33933129	1.0543973	0.8118765	-0.21040455	1.4150433	1.0158275	0.27496546
383	1.528	1.5081421	0.10437034	-0.037477164	0.93973014	0.035533413	0.11757314	1.3829545	0.09753403	-0.058858219	0.81010498	0.083293139	0.13286031	1.3828179	0.11297943	0.024847252	0.84200676	0.10356499	0.049040937	1.3229174	0.046788272	-0.014850614	0.75785771	0.074506822	0.069175568	1.3279212	0.46729495	-0.065556449	0.98009776	0.43919889	0.17024754	1.321637	0.45989069	0.054557814	0.96498863	0.43706703	0.038653498	1.1352706	0.80992249	-0.11515068	1.061931	0.79494693	0.22692629	1.1941741	0.85257907	-0.05710278	1.1720773	0.84515977	0.19163985	0.99733891	0.92174375	0.05303941	1.109973	1.3327208	-0.11529134	1.1348161	1.3207566	0.24470016	1.04674	1.3661339	0.071444575	1.0009486	1.0396494	-0.15485877	1.1782884	1.0067068	0.33921478	1.0580404	0.81067187	-0.21113021	1.4217829	1.0158461	0.27428357
384	1.532	1.5230466	0.10803984	-0.037161376	0.9397183	0.035775334	0.11766013	1.3979332	0.097712693	-0.058265796	0.81075354	0.08411176	0.13308734	1.3969905	0.11335676	0.025229069	0.8426176	0.10414081	0.049186343	1.3393242	0.045163928	-0.01418534	0.75826168	0.075804803	0.069448513	1.3332535	0.46495385	-0.064702602	0.98411978	0.43868979	0.17010007	1.3271459	0.45802451	0.055412015	0.96864788	0.4365284	0.038579429	1.1419335	0.80813302	-0.11538193	1.067555	0.7936443	0.22636683	1.200946	0.85105181	-0.05722256	1.1786978	0.84332586	0.19144117	1.0038072	0.92030034	0.052469925	1.1159777	1.3312337	-0.11557141	1.1408217	1.3194014	0.24447168	1.0527456	1.3646317	0.07117345	1.0061963	1.0386738	-0.15484725	1.1852401	1.0055184	0.33910792	1.0618305	0.80946646	-0.21186705	1.428465	1.0157271	0.27363135
385	1.536	1.5373323	0.11172108	-0.036883577	0.93971853	0.035988419	0.11777616	1.4124335	0.098056142	-0.057663723	0.8115242	0.08489379	0.13333235	1.4105179	0.11378173	0.025685375	0.84324786	0.1047611	0.049353898	1.3552236	0.04371849	-0.013157187	0.75867412	0.077175846	0.069769151	1.3387289	0.46271577	-0.063857106	0.98809559	0.43814506	0.17000557	1.3326566	0.45617195	0.056266781	0.97239952	0.43597616	0.038530209	1.148637	0.80630082	-0.11561671	1.0731418	0.79234494	0.22593325	1.2077755	0.84952203	-0.057348429	1.1853311	0.84150957	0.19119614	1.0103009	0.91883717	0.05191064	1.1220191	1.3297426	-0.11587289	1.14685	1.3180287	0.2442081	1.0587794	1.3631261	0.070876048	1.011533	1.0376919	-0.15482166	1.1921309	1.0042999	0.33898835	1.0657696	0.80825499	-0.21261889	1.4350919	1.0154698	0.27300923
386	1.54	1.5509936	0.11528219	-0.03650893	0.93976298	0.036082644	0.11788879	1.4264298	0.098521272	-0.057028472	0.81237853	0.085656598	0.13355551	1.4236789	0.11418916	0.026282292	0.8439048	0.10542159	0.049541799	1.3706096	0.042485714	-0.011930647	0.75909462	0.078624858	0.070156587	1.3443508	0.46062064	-0.063077691	0.99188993	0.43752713	0.1700209	1.3381864	0.45433686	0.057121924	0.97625491	0.43540808	0.03850447	1.1553787	0.80444174	-0.11585179	1.0787361	0.79104462	0.22561085	1.214663	0.84799385	-0.057480184	1.1918341	0.83976715	0.19087604	1.0168304	0.91735767	0.051369014	1.1280945	1.3282523	-0.11619642	1.1529141	1.3166332	0.24391838	1.0648316	1.36163	0.070552431	1.0169543	1.0366911	-0.154787	1.1989375	1.0030293	0.33883593	1.0698542	0.80703623	-0.21339252	1.4416649	1.0150715	0.27241869
387	1.544	1.5640715	0.11864489	-0.036015425	0.93985901	0.036042519	0.11796599	1.439899	0.099057853	-0.056355351	0.81317636	0.086497047	0.13371499	1.4366307	0.11459783	0.026994465	0.84462286	0.10610747	0.049760987	1.3854358	0.041507148	-0.010710467	0.75953605	0.080154372	0.070605024	1.3501283	0.45867657	-0.062387918	0.99542759	0.4368229	0.1701737	1.3436222	0.45250311	0.057976069	0.9802233	0.43482489	0.03850448	1.1621595	0.80257352	-0.11608585	1.0844699	0.78972054	0.22532918	1.2216053	0.8464673	-0.057615896	1.1982084	0.83809669	0.19049761	1.023397	0.9158608	0.050846617	1.1342076	1.3267684	-0.11654683	1.1590232	1.3152211	0.24361361	1.0708916	1.3601586	0.070196816	1.0224463	1.0356552	-0.1547798	1.2056668	1.00171	0.33865045	1.0740793	0.80581414	-0.21418552	1.4481872	1.0145293	0.27186326
388	1.548	1.5766108	0.12177977	-0.035495261	0.94000257	0.035890973	0.11797523	1.4528218	0.099615341	-0.055651616	0.81382658	0.087493015	0.13381906	1.4494129	0.11502181	0.027772217	0.84539903	0.10683258	0.050006751	1.3996195	0.040783243	-0.0096327417	0.76002301	0.081766184	0.071081875	1.3560748	0.45686339	-0.06178923	0.99878706	0.43606184	0.17043239	1.348647	0.45062583	0.058814932	0.98431054	0.43422531	0.038534402	1.1689922	0.80071085	-0.11631921	1.090427	0.78836037	0.22503638	1.2285964	0.84494035	-0.057751679	1.204543	0.83647371	0.19012518	1.0299982	0.91434811	0.050329289	1.1403663	1.3252915	-0.11692696	1.1651759	1.313803	0.24330034	1.0769593	1.3587289	0.069802927	1.0279999	1.0345757	-0.1548229	1.2123359	1.0003599	0.33844407	1.0784446	0.80459078	-0.21498714	1.4546649	1.0138434	0.2713426
389	1.552	1.5886359	0.12465735	-0.035041514	0.94018517	0.035665308	0.1178929	1.4651851	0.10014696	-0.054928284	0.81440754	0.088622905	0.1339448	1.4619348	0.11543198	0.028588964	0.84618865	0.10763542	0.050256334	1.4131005	0.040259666	-0.0087049669	0.76058192	0.083462747	0.071553532	1.3621956	0.45515136	-0.061276594	1.0022418	0.43530331	0.17070965	1.352925	0.448655	0.059617128	0.98852119	0.43360441	0.03859428	1.1758938	0.79886475	-0.11654847	1.0964812	0.78698928	0.22473202	1.2356278	0.84341213	-0.057881791	1.2109139	0.83488187	0.1898131	1.036633	0.91282824	0.049799866	1.1465749	1.3238184	-0.11733756	1.1713617	1.3123893	0.24297684	1.0830528	1.3573409	0.069371289	1.033619	1.0334598	-0.15490688	1.2189529	0.99899284	0.33822491	1.0829523	0.80336376	-0.21579526	1.4611023	1.0130132	0.27084885
